<svg xmlns="http://www.w3.org/2000/svg" width="760" height="270" viewBox="0 0 760 270">
  <style>
    text { font-family: Arial, sans-serif; fill: #0f172a; }
    .title { font-size: 22px; font-weight: 700; }
    .heading { font-size: 12px; font-weight: 700; fill: #475569; }
    .component { font-size: 17px; font-weight: 700; }
    .layer { font-size: 15px; }
    .actual { font-size: 14px; font-weight: 700; }
    .status { font-size: 12px; font-weight: 700; letter-spacing: 0.5px; }
  </style>
  <rect width="760" height="270" fill="#ffffff" />
  <text x="20" y="34" class="title">Bottom footprint layer export</text>
  <text x="44" y="70" class="heading">COMPONENT</text>
  <text x="155" y="70" class="heading">CIRCUIT JSON</text>
  <text x="302" y="70" class="heading">EXPECTED KICAD</text>
  <text x="450" y="70" class="heading">EXPORTED KICAD</text>
  <text x="608" y="70" class="heading">RESULT</text>
  
    <g>
      <rect x="20" y="88" width="720" height="58" rx="8" fill="#f8fafc" stroke="#cbd5e1" />
      <text x="44" y="123" class="component">R1</text>
      <text x="155" y="123" class="layer">top</text>
      <path d="M 245 117 H 278" stroke="#64748b" stroke-width="2" />
      <path d="M 272 111 L 280 117 L 272 123" fill="none" stroke="#64748b" stroke-width="2" />
      <text x="302" y="123" class="layer">F.Cu</text>
      <path d="M 393 117 H 426" stroke="#64748b" stroke-width="2" />
      <path d="M 420 111 L 428 117 L 420 123" fill="none" stroke="#64748b" stroke-width="2" />
      <rect x="450" y="101" width="92" height="32" rx="16" fill="#dcfce7" />
      <text x="496" y="123" text-anchor="middle" class="actual" fill="#15803d">F.Cu</text>
      <rect x="580" y="101" width="132" height="32" rx="16" fill="#dcfce7" />
      <text x="646" y="123" text-anchor="middle" class="status" fill="#15803d">MATCH</text>
    </g>
    <g>
      <rect x="20" y="166" width="720" height="58" rx="8" fill="#f8fafc" stroke="#cbd5e1" />
      <text x="44" y="201" class="component">C1</text>
      <text x="155" y="201" class="layer">bottom</text>
      <path d="M 245 195 H 278" stroke="#64748b" stroke-width="2" />
      <path d="M 272 189 L 280 195 L 272 201" fill="none" stroke="#64748b" stroke-width="2" />
      <text x="302" y="201" class="layer">B.Cu</text>
      <path d="M 393 195 H 426" stroke="#64748b" stroke-width="2" />
      <path d="M 420 189 L 428 195 L 420 201" fill="none" stroke="#64748b" stroke-width="2" />
      <rect x="450" y="179" width="92" height="32" rx="16" fill="#fee2e2" />
      <text x="496" y="201" text-anchor="middle" class="actual" fill="#dc2626">F.Cu</text>
      <rect x="580" y="179" width="132" height="32" rx="16" fill="#fee2e2" />
      <text x="646" y="201" text-anchor="middle" class="status" fill="#dc2626">MISMATCH</text>
    </g>
</svg>